<?xml version="1.0" encoding="utf-8"?>
<!-- Generator: Adobe Illustrator 21.0.0, SVG Export Plug-In . SVG Version: 6.00 Build 0)  -->
<svg version="1.1" id="图层_1" xmlns="http://www.w3.org/2000/svg" xmlns:xlink="http://www.w3.org/1999/xlink" x="0px" y="0px"
	 viewBox="0 0 120 120" style="enable-background:new 0 0 120 120;" xml:space="preserve">
<style type="text/css">
	.st0{display:none;fill:#FFFFFF;}
	.st1{fill:none;stroke:#000000;stroke-width:2;stroke-miterlimit:10;}
</style>
<image style="display:none;overflow:visible;" width="799" height="799" xlink:href="DC logo/DC logo1.png"  transform="matrix(1 0 0 1 -338.9674 -345.6825)">
</image>
<rect x="-163.1" y="116.3" class="st0" width="736.9" height="249.4"/>
<path class="st1" d="M113,36.1c-8.9,22.1-22.5,46.1-39,67.5c-7.4,9.8-20.4,9.7-27.8-0.3C30.7,84.2,15.8,59.4,6.8,35.6
	C2.8,23.8,9.7,13.4,21.2,12c24.1-3.9,53.6-3.9,78.7,0.2C111.1,14.9,117.2,22.2,113,36.1z"/>
<path class="st1" d="M82.7,44.3c-3.8,9.4-9.6,19.7-16.6,28.8c-3.1,4.2-8.7,4.1-11.8-0.1c-7.1-9.3-13-18.7-16.8-28.8
	c-1.7-5,1.3-9.5,6.1-10.1c10.3-1.6,22.8-1.7,33.5,0.1C81.9,35.3,84.5,38.4,82.7,44.3z"/>
</svg>
